<svg xmlns="http://www.w3.org/2000/svg"><defs><symbol id="ic-sales" viewBox="0 0 24 24" fill="none" stroke="currentColor" stroke-width="1.8" stroke-linecap="round" stroke-linejoin="round"><path d="M3 17l5-5 3 3 7-7"/><path d="M16 8h5v5"/></symbol><symbol id="ic-marketing" viewBox="0 0 24 24" fill="none" stroke="currentColor" stroke-width="1.8" stroke-linecap="round" stroke-linejoin="round"><path d="M4 10v4l9 4V6z"/><path d="M4 10H3a1 1 0 0 0-1 1v2a1 1 0 0 0 1 1h1"/><path d="M17 9a3.2 3.2 0 0 1 0 6"/><path d="M7.6 15.2V18a1 1 0 0 0 1 1H10"/></symbol><symbol id="ic-engineering" viewBox="0 0 24 24" fill="none" stroke="currentColor" stroke-width="1.8" stroke-linecap="round" stroke-linejoin="round"><path d="M9 8l-4 4 4 4"/><path d="M15 8l4 4-4 4"/></symbol><symbol id="ic-product" viewBox="0 0 24 24" fill="none" stroke="currentColor" stroke-width="1.8" stroke-linecap="round" stroke-linejoin="round"><circle cx="12" cy="12" r="9"/><path d="M15.4 8.6l-2.3 5.1-5.1 2.3 2.3-5.1z"/></symbol><symbol id="ic-operations" viewBox="0 0 24 24" fill="none" stroke="currentColor" stroke-width="1.8" stroke-linecap="round" stroke-linejoin="round"><rect x="3.5" y="3.5" width="6" height="6" rx="1.6"/><rect x="14.5" y="14.5" width="6" height="6" rx="1.6"/><path d="M9.5 6.5H14a2.5 2.5 0 0 1 2.5 2.5V14.5"/></symbol><symbol id="ic-founders" viewBox="0 0 24 24" fill="none" stroke="currentColor" stroke-width="1.8" stroke-linecap="round" stroke-linejoin="round"><path d="M12 3c3 1.6 4.6 5 4.6 8 0 2-1 4-2.1 5.1L12 18.5 9.5 16.1C8.4 15 7.4 13 7.4 11c0-3 1.6-6.4 4.6-8z"/><circle cx="12" cy="9.3" r="1.5"/><path d="M9 16l-2.2 4 3.8-1.6M15 16l2.2 4-3.8-1.6"/></symbol><symbol id="ic-startups" viewBox="0 0 24 24" fill="none" stroke="currentColor" stroke-width="1.8" stroke-linecap="round" stroke-linejoin="round"><path d="M13 3L5 13h5l-1 8 8-11h-5z"/></symbol><symbol id="ic-financial" viewBox="0 0 24 24" fill="none" stroke="currentColor" stroke-width="1.8" stroke-linecap="round" stroke-linejoin="round"><path d="M3 9l9-5 9 5"/><path d="M4.5 9.5v8M9 9.5v8M15 9.5v8M19.5 9.5v8"/><path d="M3 20.5h18"/></symbol><symbol id="ic-healthcare" viewBox="0 0 24 24" fill="none" stroke="currentColor" stroke-width="1.8" stroke-linecap="round" stroke-linejoin="round"><path d="M12 20C7 16.2 3.2 13 3.2 8.6 3.2 6 5.2 4 7.6 4c2 0 3.3 1.3 4.4 2.8C13.1 5.3 14.4 4 16.4 4 18.8 4 20.8 6 20.8 8.6c0 4.4-3.8 7.6-8.8 11.4z"/><path d="M5.5 12h3l1.4-2.6 2 4.6 1.3-2H17"/></symbol><symbol id="ic-legal" viewBox="0 0 24 24" fill="none" stroke="currentColor" stroke-width="1.8" stroke-linecap="round" stroke-linejoin="round"><path d="M12 4v16M6 20h12M5 7h14M12 5L6 7M12 5l6 2"/><path d="M5 7L2.6 12.4a2.7 2.7 0 0 0 4.8 0zM19 7l-2.4 5.4a2.7 2.7 0 0 0 4.8 0z"/></symbol><symbol id="ic-professional" viewBox="0 0 24 24" fill="none" stroke="currentColor" stroke-width="1.8" stroke-linecap="round" stroke-linejoin="round"><rect x="3" y="7.5" width="18" height="12.5" rx="2"/><path d="M8.5 7.5V5.5a2 2 0 0 1 2-2h3a2 2 0 0 1 2 2v2"/><path d="M3 12.5h18"/></symbol><symbol id="ic-files" viewBox="0 0 24 24" fill="none" stroke="currentColor" stroke-width="1.8" stroke-linecap="round" stroke-linejoin="round"><path d="M13.5 3H7a2 2 0 0 0-2 2v14a2 2 0 0 0 2 2h10a2 2 0 0 0 2-2V8.5z"/><path d="M13.5 3v5.5H19"/><path d="M9 13.5h6M9 17h4"/></symbol><symbol id="ic-byoai" viewBox="0 0 24 24" fill="none" stroke="currentColor" stroke-width="1.8" stroke-linecap="round" stroke-linejoin="round"><rect x="7" y="7" width="10" height="10" rx="2.2"/><rect x="10" y="10" width="4" height="4" rx="1"/><path d="M10 3v3.5M14 3v3.5M10 17.5V21M14 17.5V21M3 10h3.5M3 14h3.5M17.5 10H21M17.5 14H21"/></symbol><symbol id="ic-agents" viewBox="0 0 24 24" fill="none" stroke="currentColor" stroke-width="1.8" stroke-linecap="round" stroke-linejoin="round"><rect x="5" y="8" width="14" height="10" rx="2.4"/><circle cx="9.6" cy="13" r="1.2"/><circle cx="14.4" cy="13" r="1.2"/><path d="M12 4.2V8M8.5 18v2M15.5 18v2"/></symbol></defs></svg>
